<?xml version="1.0" encoding="utf-8"?>
<!-- Generator: Adobe Illustrator 15.1.0, SVG Export Plug-In . SVG Version: 6.00 Build 0)  -->
<!DOCTYPE svg PUBLIC "-//W3C//DTD SVG 1.1//EN" "http://www.w3.org/Graphics/SVG/1.1/DTD/svg11.dtd">
<svg version="1.1" id="Layer_1" xmlns="http://www.w3.org/2000/svg" xmlns:xlink="http://www.w3.org/1999/xlink" x="0px" y="0px"
	 width="100px" height="100px" viewBox="0 0 100 100" enable-background="new 0 0 100 100" xml:space="preserve">
<path class="cls-1" d="M69.93514,43.25673l-4.0411,2.3322a16.12925,16.12925,0,0,1,0,8.82315l4.0411,2.3322a4.1268,4.1268,0,0,1-4.12778,7.14725l-4.03285-2.32806a16.48377,16.48377,0,0,1-7.64672,4.40434v4.66853a4.12779,4.12779,0,0,1-8.25558,0V65.96781a16.47356,16.47356,0,0,1-7.64672-4.40434l-4.03285,2.32806a4.1268,4.1268,0,0,1-4.12778-7.14725l4.0411-2.3322a16.12925,16.12925,0,0,1,0-8.82315l-4.0411-2.3322a4.1268,4.1268,0,0,1,4.12778-7.14726l4.03285,2.32807a16.47351,16.47351,0,0,1,7.64672-4.40434V29.36467a4.12779,4.12779,0,0,1,8.25558,0V34.0332a16.48382,16.48382,0,0,1,7.64672,4.40434l4.03285-2.32807a4.1268,4.1268,0,0,1,4.12778,7.14726ZM50.00046,38.039a11.96146,11.96146,0,1,0,11.96,11.96A11.96284,11.96284,0,0,0,50.00046,38.039Z"/>
</svg>
