<?xml version="1.0" standalone="no"?>
<!DOCTYPE svg PUBLIC "-//W3C//DTD SVG 20010904//EN"
 "http://www.w3.org/TR/2001/REC-SVG-20010904/DTD/svg10.dtd">
<svg version="1.0" xmlns="http://www.w3.org/2000/svg"
 width="700.000000pt" height="700.000000pt" viewBox="0 0 700.000000 700.000000"
 preserveAspectRatio="xMidYMid meet">
<metadata>
Created by potrace 1.11, written by Peter Selinger 2001-2013
</metadata>
<g transform="translate(0.000000,700.000000) scale(0.100000,-0.100000)"
fill="#000000" stroke="none">
<path d="M0 3500 l0 -3500 3500 0 3500 0 0 3500 0 3500 -3500 0 -3500 0 0
-3500z m3280 2630 c223 -11 301 -20 490 -57 810 -155 1465 -632 1826 -1328
216 -417 317 -919 285 -1419 -44 -690 -298 -1260 -762 -1711 -329 -319 -732
-539 -1199 -654 -378 -93 -563 -103 -1850 -99 l-955 3 -3 2625 c-1 1444 0
2631 3 2638 6 15 1860 17 2165 2z"/>
<path d="M1260 3500 l0 -2490 1013 0 c622 0 1058 4 1132 11 540 47 1004 217
1400 514 516 387 835 964 916 1655 7 58 12 197 12 310 0 291 -27 494 -99 748
-244 862 -943 1492 -1860 1677 -295 60 -248 58 -1426 62 l-1088 4 0 -2491z
m2051 1766 c274 -72 480 -193 665 -390 49 -51 114 -131 144 -177 l55 -84 175
0 c152 0 186 -3 260 -23 172 -47 320 -133 453 -261 134 -129 223 -281 275
-469 23 -86 26 -115 26 -257 0 -176 -15 -258 -75 -400 -94 -220 -281 -415
-500 -520 -40 -19 -78 -35 -84 -35 -6 0 -18 38 -27 85 -12 66 -49 163 -85 225
-2 3 30 22 71 43 152 78 277 227 332 393 25 78 29 104 29 209 0 106 -3 131
-29 209 -73 222 -263 398 -486 450 -83 20 -237 20 -319 1 -35 -9 -94 -30 -130
-48 -36 -17 -69 -33 -73 -35 -3 -2 -14 23 -23 55 -23 79 -84 208 -134 281
-131 194 -329 336 -566 408 -83 26 -103 28 -270 28 -213 1 -287 -14 -450 -94
-236 -114 -420 -316 -511 -559 -92 -245 -83 -535 26 -776 73 -162 228 -343
368 -430 l63 -38 -30 -31 c-43 -45 -99 -142 -118 -206 -9 -30 -18 -57 -20 -59
-1 -2 -42 23 -90 54 -111 74 -300 262 -372 370 -99 150 -170 323 -208 505 -25
119 -25 391 0 510 89 423 352 772 726 959 101 51 259 105 367 125 59 12 129
14 274 12 170 -4 208 -8 291 -30z m-179 -2524 c82 -170 -39 -362 -227 -362
-152 0 -267 126 -252 276 8 76 28 108 145 226 l107 108 103 -103 c57 -56 112
-121 124 -145z m1184 11 c72 -120 21 -283 -108 -347 -177 -89 -385 53 -365
249 8 77 28 108 145 228 l106 107 99 -97 c54 -54 110 -117 123 -140z m-707
-548 c118 -121 141 -162 141 -255 0 -147 -103 -250 -250 -250 -105 0 -188 53
-231 145 -25 54 -25 156 1 213 17 38 212 252 230 252 4 0 53 -47 109 -105z"/>
</g>
</svg>
