<svg id="Layer_1" data-name="Layer 1" xmlns="http://www.w3.org/2000/svg" viewBox="0 0 576 576"><defs><style>.cls-1{fill:#231f20;}.cls-2{fill:#fff;fill-rule:evenodd;}</style></defs><title>logo</title><rect class="cls-1" width="576" height="576"/><path class="cls-2" d="M388.78369,154.68025a121.53111,121.53111,0,0,0-20.49445,2.0666A161.22916,161.22916,0,1,0,148.667,375.91541a69.925,69.925,0,0,1,18.88151-34.72865l.57461-.57461a120.90838,120.90838,0,0,1,59.39661-226.24537c57.37031,0,105.17389,40.06144,117.59357,93.65145a80.54132,80.54132,0,1,1,71.544,143.20911,70.19266,70.19266,0,0,1,12.31885,38.37793,120.88423,120.88423,0,0,0-40.1925-234.925ZM217.42875,348.314,196.0472,369.6955a30.2381,30.2381,0,1,0,42.76313,0Zm70.56621,80.627-21.38154,21.38159a30.23452,30.23452,0,1,0,42.753,0Zm70.55614-80.627L337.16956,369.6955a30.2381,30.2381,0,1,0,42.76313,0Z"/></svg>