<svg id="Layer_1" data-name="Layer 1" xmlns="http://www.w3.org/2000/svg" viewBox="0 0 576 576"><defs><style>.cls-1{fill:#231f20;}.cls-2,.cls-3{fill:#fff;}.cls-3{fill-rule:evenodd;}</style></defs><title>logo</title><rect class="cls-1" width="576" height="576"/><path class="cls-2" d="M91.55845,71.10885H255.77613q67.53585,0,119.29053,27.88589,51.73428,27.88611,80.55914,77.46148,28.81618,49.5845,28.81575,111.544,0,61.97361-28.81575,111.54356-28.81488,49.58514-80.55914,77.46105-51.74989,27.88675-119.29053,27.88632H91.55845Zm162.97844,422.0078q65.06779,0,114.33271-26.3364,49.26492-26.33252,76.22181-73.12285,26.956-46.78254,26.956-105.65718,0-58.86576-26.956-105.65718-26.95732-46.78189-76.22181-73.12329Q319.6047,82.88791,254.53689,82.88291H103.95256V493.11665Z"/><path class="cls-3" d="M357.97424,195.43594a84.37943,84.37943,0,0,0-14.22933,1.43484,111.9416,111.9416,0,1,0-152.484,152.169,48.549,48.549,0,0,1,13.10946-24.11215l.399-.399a83.92273,83.92273,0,1,1,122.88449-92.06012A55.91994,55.91994,0,1,1,377.327,331.89882a48.73487,48.73487,0,0,1,8.553,26.64585,83.93007,83.93007,0,0,0-27.9057-163.10873Zm-118.972,134.44011-14.84523,14.84523a20.99435,20.99435,0,1,0,29.69049,0Zm48.99421,55.97939L273.15127,400.7007a20.99187,20.99187,0,1,0,29.6835,0Zm48.98722-55.97939-14.84524,14.84523a20.99435,20.99435,0,1,0,29.6905,0Z"/></svg>