<svg id="Layer_1" data-name="Layer 1" xmlns="http://www.w3.org/2000/svg" viewBox="0 0 72 72"><title>Artboard 2</title><path d="M27.23274,26.79211a1.9523,1.9523,0,0,0-2.78249,0l-9.00162,9.01345L6.4351,26.79211a1.97356,1.97356,0,0,0-2.7944,0,1.96635,1.96635,0,0,0,0,2.79439L14.04548,39.99128a1.98091,1.98091,0,0,0,2.78249,0L27.23274,29.5865A1.97356,1.97356,0,0,0,27.23274,26.79211Z"/><path d="M42.90644,8.24519A27.81213,27.81213,0,0,0,13.32206,35.99993h3.94512a23.864,23.864,0,1,1,8.3344,18.12053,1.97,1.97,0,0,0-2.68129.09122h0a1.976,1.976,0,0,0,.09813,2.89084,27.811,27.811,0,1,0,19.888-48.85733Z"/></svg>